<svg width="44" height="50" viewBox="0 0 44 50" fill="none" xmlns="http://www.w3.org/2000/svg">
<path d="M42.8022 9.03372C38.2395 4.58395 32.0895 0 22.2346 0C10.1979 0 3.38596 6.53866 3.38596 15.906C3.38596 24.2616 10.0663 28.171 18.2663 29.317L23.6226 30.0604C27.7902 30.5971 31.7585 31.54 31.7585 34.9091C31.7585 38.8874 26.6015 40.436 23.1599 40.436C18.1346 40.436 12.7782 38.2818 9.66764 34.4377L0.805664 40.1676C5.56764 45.8286 11.1909 49.8033 22.1029 49.8033C35.4635 49.8033 43.3325 43.2683 43.3325 33.2264C43.3325 25.0703 38.3071 21.2987 26.1388 19.5471L20.9782 18.8036C17.0099 18.198 15.0275 16.9831 15.0275 14.4228C15.0275 12.1997 17.2092 9.37099 21.9712 9.37099C26.9965 9.37099 30.8332 11.7282 34.2071 15.3004L42.8022 9.03372Z" fill="white"/>
</svg>
