<svg width="53" height="54" viewBox="0 0 53 54" fill="none" xmlns="http://www.w3.org/2000/svg">
<mask id="mask0_167_214" style="mask-type:luminance" maskUnits="userSpaceOnUse" x="0" y="0" width="53" height="54">
<path d="M0 0.804321H52.7073V53.2632H0V0.804321Z" fill="white"/>
</mask>
<g mask="url(#mask0_167_214)">
<path d="M9.52488 38.129C9.52488 40.7152 10.1184 43.1667 11.1767 45.3553C9.1699 42.4299 7.99515 38.8969 7.99515 35.0953C7.99515 25.0379 16.2146 16.8563 26.3197 16.8563C36.4247 16.8563 44.6451 25.0379 44.6451 35.0953C44.6451 38.895 43.4713 42.4271 41.4664 45.3515C42.5228 43.1639 43.1163 40.7143 43.1163 38.129C43.1163 28.912 35.5813 21.4144 26.3197 21.4144C17.059 21.4144 9.52488 28.912 9.52488 38.129ZM26.3197 15.0351C37.4329 15.0351 46.4749 24.0345 46.4749 35.0953C46.4749 38.1969 45.764 41.1364 44.4956 43.7612C46.9018 40.2517 48.3104 36.013 48.3104 31.453C48.3104 19.384 38.4458 9.56685 26.3197 9.56685C14.1945 9.56685 4.32987 19.384 4.32987 31.453C4.32987 36.0111 5.73843 40.2489 8.14282 43.7574C6.87531 41.1335 6.16535 38.1959 6.16535 35.0953C6.16535 24.0345 15.2074 15.0351 26.3197 15.0351ZM26.3197 7.38201C39.6565 7.38201 50.5056 18.18 50.5056 31.453C50.5056 35.1763 49.6517 38.7037 48.1296 41.8543C51.0177 37.6429 52.7084 32.5562 52.7084 27.0842C52.7084 12.6025 40.871 0.819946 26.3197 0.819946C11.7693 0.819946 -0.0680847 12.6025 -0.0680847 27.0842C-0.0680847 32.5562 1.62351 37.6429 4.51068 41.8543C2.98852 38.7037 2.13468 35.1763 2.13468 31.453C2.13468 18.18 12.9847 7.38201 26.3197 7.38201ZM26.3197 26.7271C34.0383 26.7271 40.3163 32.9774 40.3163 40.6587C40.3163 42.8115 39.8231 44.8522 38.9418 46.6753C40.6135 44.2379 41.5913 41.2947 41.5913 38.129C41.5913 29.7486 34.7407 22.9303 26.3197 22.9303C17.8996 22.9303 11.0499 29.7486 11.0499 38.129C11.0499 41.2947 12.0277 44.2379 13.6985 46.6753C12.8181 44.8531 12.324 42.8115 12.324 40.6587C12.325 32.9774 18.6029 26.7271 26.3197 26.7271ZM35.1582 44.5215C35.1582 39.6704 31.1938 35.7247 26.3197 35.7247C21.4475 35.7247 17.483 39.6704 17.483 44.5215C17.483 49.3717 21.4475 53.3174 26.3197 53.3174C31.1938 53.3174 35.1582 49.3717 35.1582 44.5215ZM26.3197 31.1562C32.7519 31.1562 37.9838 36.3644 37.9838 42.7663C37.9838 44.562 37.572 46.2635 36.8375 47.7823C38.2309 45.751 39.0469 43.2977 39.0469 40.6587C39.0469 33.6736 33.3378 27.9925 26.3197 27.9925C19.3034 27.9925 13.5944 33.6736 13.5944 40.6587C13.5944 43.2967 14.4094 45.7482 15.8009 47.7785C15.0673 46.2607 14.6565 44.5601 14.6565 42.7663C14.6565 36.3644 19.8884 31.1562 26.3197 31.1562ZM26.3197 34.8466C31.6794 34.8466 36.0404 39.1871 36.0404 44.5215C36.0404 46.0186 35.6968 47.4375 35.0834 48.7037C36.2449 47.0107 36.9255 44.9662 36.9255 42.7663C36.9255 36.9457 32.1678 32.2095 26.3197 32.2095C20.4724 32.2095 15.7148 36.9457 15.7148 42.7663C15.7148 44.9671 16.3954 47.0135 17.5588 48.7065C16.9454 47.4393 16.6008 46.0195 16.6008 44.5215C16.6008 39.1871 20.9609 34.8466 26.3197 34.8466Z" fill="url(#paint0_linear_167_214)"/>
</g>
<defs>
<linearGradient id="paint0_linear_167_214" x1="-0.0680858" y1="6.54841" x2="50.9398" y2="54.9397" gradientUnits="userSpaceOnUse">
<stop stop-color="#0017FF"/>
<stop offset="1" stop-color="#FF009A"/>
</linearGradient>
</defs>
</svg>
