<svg width="53" height="54" viewBox="0 0 53 54" fill="none" xmlns="http://www.w3.org/2000/svg">
<path d="M9.52488 38.2484C9.52488 40.8946 10.1184 43.403 11.1767 45.6424C9.1699 42.6491 7.99515 39.0341 7.99515 35.1443C7.99515 24.8535 16.2146 16.4821 26.3197 16.4821C36.4247 16.4821 44.6451 24.8535 44.6451 35.1443C44.6451 39.0322 43.4713 42.6462 41.4664 45.6385C42.5228 43.4001 43.1163 40.8937 43.1163 38.2484C43.1163 28.8175 35.5813 21.146 26.3197 21.146C17.059 21.146 9.52488 28.8175 9.52488 38.2484ZM26.3197 14.6187C37.4329 14.6187 46.4749 23.8269 46.4749 35.1443C46.4749 38.3178 45.764 41.3255 44.4956 44.0113C46.9018 40.4203 48.3104 36.0833 48.3104 31.4175C48.3104 19.0685 38.4458 9.02358 26.3197 9.02358C14.1945 9.02358 4.32987 19.0685 4.32987 31.4175C4.32987 36.0813 5.73843 40.4174 8.14282 44.0074C6.87531 41.3226 6.16535 38.3169 6.16535 35.1443C6.16535 23.8269 15.2074 14.6187 26.3197 14.6187ZM26.3197 6.78804C39.6565 6.78804 50.5056 17.8365 50.5056 31.4175C50.5056 35.2272 49.6517 38.8365 48.1296 42.0601C51.0177 37.751 52.7084 32.5463 52.7084 26.9474C52.7084 12.1296 40.871 0.0737305 26.3197 0.0737305C11.7693 0.0737305 -0.0680847 12.1296 -0.0680847 26.9474C-0.0680847 32.5463 1.62351 37.751 4.51068 42.0601C2.98852 38.8365 2.13468 35.2272 2.13468 31.4175C2.13468 17.8365 12.9847 6.78804 26.3197 6.78804ZM26.3197 26.582C34.0383 26.582 40.3163 32.9772 40.3163 40.8368C40.3163 43.0395 39.8231 45.1276 38.9418 46.9929C40.6135 44.4991 41.5913 41.4875 41.5913 38.2484C41.5913 29.6736 34.7407 22.6971 26.3197 22.6971C17.8996 22.6971 11.0499 29.6736 11.0499 38.2484C11.0499 41.4875 12.0277 44.4991 13.6985 46.9929C12.8181 45.1285 12.324 43.0395 12.324 40.8368C12.325 32.9772 18.6029 26.582 26.3197 26.582ZM35.1582 44.7892C35.1582 39.8255 31.1938 35.7883 26.3197 35.7883C21.4475 35.7883 17.483 39.8255 17.483 44.7892C17.483 49.7519 21.4475 53.7892 26.3197 53.7892C31.1938 53.7892 35.1582 49.7519 35.1582 44.7892ZM26.3197 31.1138C32.7519 31.1138 37.9838 36.4428 37.9838 42.9933C37.9838 44.8307 37.572 46.5717 36.8375 48.1256C38.2309 46.0472 39.0469 43.537 39.0469 40.8368C39.0469 33.6896 33.3378 27.8767 26.3197 27.8767C19.3034 27.8767 13.5944 33.6896 13.5944 40.8368C13.5944 43.536 14.4094 46.0444 15.8009 48.1218C15.0673 46.5688 14.6565 44.8287 14.6565 42.9933C14.6565 36.4428 19.8884 31.1138 26.3197 31.1138ZM26.3197 34.8898C31.6794 34.8898 36.0404 39.331 36.0404 44.7892C36.0404 46.321 35.6968 47.7728 35.0834 49.0684C36.2449 47.3361 36.9255 45.2442 36.9255 42.9933C36.9255 37.0376 32.1678 32.1916 26.3197 32.1916C20.4724 32.1916 15.7148 37.0376 15.7148 42.9933C15.7148 45.2452 16.3954 47.339 17.5588 49.0713C16.9454 47.7747 16.6008 46.322 16.6008 44.7892C16.6008 39.331 20.9609 34.8898 26.3197 34.8898Z" fill="url(#paint0_linear_109_31)"/>
<defs>
<linearGradient id="paint0_linear_109_31" x1="-0.0680858" y1="5.9351" x2="52.0466" y2="54.2553" gradientUnits="userSpaceOnUse">
<stop stop-color="#0017FF"/>
<stop offset="1" stop-color="#FF009A"/>
</linearGradient>
</defs>
</svg>
