<svg xmlns="http://www.w3.org/2000/svg" xmlns:xlink="http://www.w3.org/1999/xlink" width="1920" zoomAndPan="magnify" viewBox="0 0 1440 809.999993" height="1080" preserveAspectRatio="xMidYMid meet" version="1.2"><g id="91e172b5a9"><path style=" stroke:none;fill-rule:nonzero;fill:#f1f1f1;fill-opacity:1;" d="M 603.671875 188.875 C 632.238281 209.707031 653.859375 238.976562 672.273438 265.871094 L 686.703125 287.085938 C 687.257812 287.898438 687.777344 288.730469 688.257812 289.585938 C 688.742188 290.441406 689.1875 291.320312 689.59375 292.210938 C 690 293.105469 690.367188 294.019531 690.695312 294.945312 C 691.023438 295.871094 691.3125 296.808594 691.558594 297.761719 C 691.804688 298.710938 692.007812 299.671875 692.171875 300.640625 C 692.335938 301.609375 692.457031 302.582031 692.535156 303.5625 C 692.613281 304.542969 692.652344 305.523438 692.644531 306.507812 C 692.640625 307.488281 692.589844 308.46875 692.5 309.449219 C 692.410156 310.425781 692.277344 311.398438 692.101562 312.367188 C 691.925781 313.332031 691.707031 314.289062 691.449219 315.238281 C 691.191406 316.1875 690.890625 317.121094 690.554688 318.042969 C 690.214844 318.964844 689.835938 319.871094 689.417969 320.761719 C 689 321.652344 688.542969 322.519531 688.050781 323.371094 C 687.558594 324.21875 687.027344 325.046875 686.464844 325.851562 C 685.898438 326.65625 685.300781 327.433594 684.667969 328.1875 C 684.035156 328.9375 683.371094 329.660156 682.675781 330.355469 L 652.007812 361.027344 L 655.242188 367.902344 C 663.15625 383.941406 676.820312 407.035156 697.378906 427.617188 C 713.210938 443.449219 730.515625 455.164062 744.96875 463.355469 L 753.269531 467.808594 L 760.667969 471.472656 L 763.96875 472.988281 L 794.617188 442.320312 C 795.3125 441.621094 796.039062 440.957031 796.796875 440.324219 C 797.550781 439.691406 798.332031 439.089844 799.140625 438.527344 C 799.945312 437.960938 800.777344 437.433594 801.632812 436.9375 C 802.484375 436.445312 803.359375 435.992188 804.25 435.574219 C 805.144531 435.15625 806.054688 434.78125 806.980469 434.441406 C 807.90625 434.105469 808.84375 433.808594 809.796875 433.550781 C 810.746094 433.292969 811.707031 433.082031 812.679688 432.90625 C 813.648438 432.734375 814.625 432.605469 815.605469 432.519531 C 816.589844 432.429688 817.570312 432.386719 818.558594 432.382812 C 819.542969 432.382812 820.527344 432.421875 821.507812 432.507812 C 822.492188 432.589844 823.46875 432.714844 824.4375 432.886719 C 825.410156 433.054688 826.371094 433.265625 827.324219 433.515625 C 828.277344 433.769531 829.21875 434.0625 830.144531 434.398438 C 831.070312 434.730469 831.980469 435.105469 832.875 435.519531 C 833.773438 435.933594 834.648438 436.382812 835.5 436.875 C 836.355469 437.363281 837.191406 437.890625 838 438.449219 L 860.933594 454.351562 C 886.992188 472.671875 914.203125 493.550781 935.351562 520.648438 C 936.261719 521.816406 937.085938 523.042969 937.832031 524.324219 C 938.578125 525.605469 939.238281 526.929688 939.804688 528.300781 C 940.375 529.667969 940.847656 531.070312 941.230469 532.5 C 941.613281 533.933594 941.894531 535.386719 942.082031 536.855469 C 942.269531 538.328125 942.359375 539.804688 942.347656 541.285156 C 942.339844 542.769531 942.230469 544.242188 942.023438 545.710938 C 941.8125 547.179688 941.507812 548.625 941.109375 550.054688 C 940.707031 551.480469 940.210938 552.875 939.625 554.234375 C 920.691406 598.410156 872.785156 636.023438 822.957031 634.171875 L 816.171875 633.808594 L 810.902344 633.355469 L 805.066406 632.675781 L 798.710938 631.816406 L 791.8125 630.664062 L 784.4375 629.214844 L 776.613281 627.476562 L 768.332031 625.347656 L 759.625 622.859375 L 750.53125 619.921875 C 708.777344 605.761719 655.785156 577.941406 601.40625 523.566406 C 547.054688 469.210938 519.234375 416.214844 505.074219 374.460938 L 502.136719 365.371094 L 499.648438 356.660156 L 497.519531 348.382812 L 495.757812 340.558594 C 495.246094 338.105469 494.773438 335.648438 494.332031 333.183594 L 493.199219 326.285156 L 492.296875 319.929688 L 491.640625 314.09375 L 491.1875 308.824219 L 490.824219 302.039062 C 488.992188 252.367188 527.015625 204.121094 570.984375 185.28125 C 572.304688 184.710938 573.652344 184.230469 575.03125 183.835938 C 576.410156 183.441406 577.8125 183.136719 579.230469 182.925781 C 580.648438 182.710938 582.078125 182.589844 583.511719 182.5625 C 584.945312 182.535156 586.378906 182.597656 587.804688 182.753906 C 589.230469 182.914062 590.640625 183.160156 592.035156 183.5 C 593.429688 183.839844 594.796875 184.269531 596.136719 184.785156 C 597.472656 185.300781 598.773438 185.902344 600.035156 186.585938 C 601.296875 187.269531 602.507812 188.035156 603.671875 188.875 Z M 582.703125 229.769531 C 558.457031 242.4375 534.976562 271.390625 536.039062 300.363281 L 536.492188 307.78125 L 536.992188 312.417969 L 537.644531 317.621094 L 538.550781 323.34375 L 539.703125 329.609375 L 541.175781 336.351562 L 542.984375 343.589844 L 545.15625 351.257812 L 547.734375 359.351562 C 548.683594 362.113281 549.679688 364.941406 550.765625 367.835938 L 554.25 376.703125 L 558.230469 385.90625 C 572.433594 417.167969 595.59375 453.761719 633.4375 491.582031 C 671.253906 529.402344 707.851562 552.585938 739.109375 566.789062 L 748.316406 570.769531 L 757.183594 574.253906 C 760.078125 575.339844 762.90625 576.335938 765.664062 577.285156 L 773.761719 579.863281 L 781.453125 582.035156 L 788.667969 583.84375 L 795.410156 585.3125 L 801.671875 586.46875 L 807.417969 587.371094 L 812.621094 588.050781 L 817.234375 588.503906 L 824.65625 588.957031 C 853.246094 590.019531 882.421875 566.675781 895.042969 542.746094 C 878.9375 523.859375 858.945312 508.363281 836.890625 492.757812 L 819.972656 480.972656 L 815.675781 485.476562 L 806.492188 495.496094 L 801.628906 500.605469 C 788.375 514.109375 772.902344 525.578125 754.355469 518.089844 L 749.242188 515.941406 L 743 513.136719 L 739.519531 511.488281 L 731.871094 507.664062 L 723.480469 503.140625 C 702.148438 491.269531 682.792969 476.753906 665.417969 459.597656 C 648.265625 442.226562 633.75 422.871094 621.878906 401.539062 L 617.355469 393.167969 L 613.507812 385.5 L 609.074219 375.773438 L 606.90625 370.617188 C 599.871094 353.222656 609.550781 338.542969 621.921875 325.832031 L 626.988281 320.855469 L 639.589844 309.253906 L 644.113281 304.957031 L 633.414062 289.28125 C 617.511719 266.210938 601.972656 245.402344 582.679688 229.75 Z M 787.695312 270.191406 L 790.320312 270.484375 C 792.363281 270.84375 794.386719 271.285156 796.394531 271.804688 C 798.402344 272.324219 800.386719 272.921875 802.347656 273.597656 C 804.308594 274.269531 806.238281 275.023438 808.140625 275.847656 C 810.042969 276.675781 811.90625 277.578125 813.738281 278.550781 C 815.570312 279.523438 817.359375 280.566406 819.109375 281.683594 C 820.855469 282.796875 822.558594 283.976562 824.214844 285.226562 C 825.871094 286.472656 827.476562 287.785156 829.027344 289.160156 C 830.582031 290.535156 832.078125 291.964844 833.519531 293.457031 C 834.957031 294.949219 836.339844 296.496094 837.65625 298.097656 C 838.976562 299.695312 840.230469 301.34375 841.417969 303.042969 C 842.609375 304.742188 843.730469 306.484375 844.78125 308.273438 C 845.835938 310.058594 846.816406 311.886719 847.722656 313.75 C 848.632812 315.613281 849.46875 317.507812 850.226562 319.4375 C 850.988281 321.367188 851.667969 323.324219 852.277344 325.308594 C 852.882812 327.289062 853.410156 329.292969 853.859375 331.320312 C 854.304688 333.34375 854.675781 335.382812 854.964844 337.4375 C 855.066406 338.144531 855.132812 338.855469 855.167969 339.570312 C 855.203125 340.285156 855.207031 340.996094 855.171875 341.710938 C 855.140625 342.425781 855.074219 343.136719 854.972656 343.84375 C 854.875 344.554688 854.738281 345.253906 854.574219 345.949219 C 854.40625 346.644531 854.207031 347.332031 853.976562 348.007812 C 853.742188 348.683594 853.480469 349.347656 853.183594 350 C 852.890625 350.652344 852.566406 351.289062 852.210938 351.910156 C 851.855469 352.53125 851.472656 353.132812 851.058594 353.71875 C 850.648438 354.300781 850.207031 354.863281 849.742188 355.40625 C 849.277344 355.949219 848.785156 356.46875 848.269531 356.964844 C 847.757812 357.460938 847.21875 357.933594 846.660156 358.378906 C 846.097656 358.824219 845.519531 359.242188 844.921875 359.632812 C 844.320312 360.019531 843.703125 360.382812 843.070312 360.714844 C 842.4375 361.046875 841.789062 361.347656 841.128906 361.617188 C 840.464844 361.886719 839.792969 362.125 839.109375 362.332031 C 838.421875 362.539062 837.730469 362.710938 837.027344 362.851562 C 836.328125 362.992188 835.621094 363.101562 834.910156 363.175781 C 834.199219 363.25 833.484375 363.289062 832.769531 363.292969 C 832.054688 363.300781 831.34375 363.273438 830.628906 363.210938 C 829.917969 363.148438 829.207031 363.054688 828.503906 362.925781 C 827.800781 362.796875 827.105469 362.636719 826.417969 362.441406 C 825.730469 362.246094 825.050781 362.019531 824.386719 361.761719 C 823.71875 361.5 823.066406 361.210938 822.425781 360.890625 C 821.789062 360.570312 821.167969 360.21875 820.558594 359.839844 C 819.953125 359.457031 819.367188 359.050781 818.800781 358.613281 C 818.234375 358.179688 817.6875 357.71875 817.164062 357.230469 C 816.640625 356.742188 816.140625 356.234375 815.667969 355.699219 C 815.191406 355.164062 814.742188 354.605469 814.320312 354.03125 C 813.898438 353.453125 813.503906 352.855469 813.140625 352.242188 C 812.773438 351.628906 812.4375 350.996094 812.132812 350.351562 C 811.828125 349.703125 811.550781 349.046875 811.308594 348.371094 C 811.066406 347.699219 810.855469 347.015625 810.675781 346.324219 L 810.15625 343.722656 C 809.929688 342.109375 809.589844 340.519531 809.132812 338.957031 C 808.679688 337.390625 808.113281 335.867188 807.4375 334.382812 C 806.761719 332.898438 805.984375 331.472656 805.105469 330.101562 C 804.222656 328.730469 803.25 327.429688 802.179688 326.199219 C 801.113281 324.96875 799.960938 323.820312 798.730469 322.753906 C 797.496094 321.691406 796.191406 320.71875 794.816406 319.839844 C 793.445312 318.964844 792.015625 318.191406 790.53125 317.519531 C 789.046875 316.847656 787.519531 316.285156 785.953125 315.835938 L 782.449219 315.042969 C 781.746094 314.917969 781.050781 314.761719 780.363281 314.570312 C 779.675781 314.382812 779 314.160156 778.335938 313.90625 C 777.667969 313.652344 777.015625 313.367188 776.375 313.050781 C 775.738281 312.734375 775.113281 312.390625 774.507812 312.015625 C 773.902344 311.640625 773.3125 311.238281 772.746094 310.808594 C 772.175781 310.378906 771.628906 309.921875 771.105469 309.4375 C 770.578125 308.957031 770.078125 308.453125 769.601562 307.921875 C 769.121094 307.394531 768.671875 306.84375 768.246094 306.269531 C 767.820312 305.699219 767.421875 305.105469 767.054688 304.496094 C 766.683594 303.886719 766.34375 303.261719 766.035156 302.621094 C 765.722656 301.976562 765.445312 301.324219 765.195312 300.65625 C 764.945312 299.988281 764.730469 299.308594 764.546875 298.621094 C 764.363281 297.929688 764.210938 297.234375 764.089844 296.53125 C 763.972656 295.828125 763.886719 295.121094 763.835938 294.410156 C 763.785156 293.699219 763.765625 292.988281 763.78125 292.273438 C 763.796875 291.5625 763.847656 290.851562 763.929688 290.144531 C 764.011719 289.433594 764.128906 288.734375 764.277344 288.035156 C 764.425781 287.339844 764.609375 286.648438 764.824219 285.96875 C 765.039062 285.289062 765.285156 284.621094 765.5625 283.964844 C 765.839844 283.308594 766.148438 282.667969 766.484375 282.039062 C 766.824219 281.410156 767.191406 280.800781 767.585938 280.207031 C 767.984375 279.617188 768.40625 279.042969 768.855469 278.488281 C 769.304688 277.9375 769.78125 277.40625 770.28125 276.898438 C 770.78125 276.390625 771.304688 275.90625 771.851562 275.449219 C 772.398438 274.992188 772.964844 274.558594 773.550781 274.152344 C 774.136719 273.75 774.742188 273.375 775.363281 273.023438 C 775.988281 272.675781 776.625 272.359375 777.277344 272.074219 C 777.929688 271.785156 778.59375 271.53125 779.269531 271.304688 C 779.949219 271.082031 780.632812 270.886719 781.328125 270.726562 C 782.023438 270.570312 782.722656 270.441406 783.429688 270.347656 C 784.136719 270.253906 784.847656 270.195312 785.558594 270.167969 C 786.273438 270.140625 786.984375 270.148438 787.695312 270.191406 Z M 787.855469 201.429688 C 790.074219 201.429688 792.292969 201.484375 794.511719 201.59375 C 796.730469 201.703125 798.945312 201.867188 801.15625 202.082031 C 803.367188 202.300781 805.570312 202.574219 807.765625 202.898438 C 809.964844 203.226562 812.152344 203.605469 814.328125 204.039062 C 816.507812 204.472656 818.675781 204.957031 820.828125 205.496094 C 822.984375 206.035156 825.125 206.628906 827.25 207.273438 C 829.375 207.917969 831.484375 208.613281 833.574219 209.363281 C 835.664062 210.113281 837.738281 210.910156 839.789062 211.761719 C 841.839844 212.609375 843.871094 213.511719 845.878906 214.460938 C 847.886719 215.410156 849.867188 216.40625 851.828125 217.453125 C 853.785156 218.5 855.71875 219.597656 857.625 220.738281 C 859.527344 221.878906 861.40625 223.066406 863.25 224.300781 C 865.097656 225.535156 866.914062 226.8125 868.699219 228.136719 C 870.480469 229.460938 872.230469 230.824219 873.949219 232.234375 C 875.664062 233.644531 877.347656 235.09375 878.992188 236.585938 C 880.636719 238.078125 882.246094 239.609375 883.816406 241.179688 C 885.386719 242.75 886.917969 244.359375 888.410156 246.003906 C 889.902344 247.648438 891.351562 249.332031 892.761719 251.046875 C 894.167969 252.765625 895.535156 254.515625 896.859375 256.296875 C 898.183594 258.082031 899.460938 259.898438 900.695312 261.746094 C 901.929688 263.589844 903.117188 265.46875 904.257812 267.371094 C 905.398438 269.277344 906.492188 271.207031 907.542969 273.167969 C 908.589844 275.125 909.585938 277.109375 910.535156 279.117188 C 911.484375 281.125 912.386719 283.15625 913.234375 285.207031 C 914.085938 287.257812 914.882812 289.332031 915.632812 291.421875 C 916.378906 293.511719 917.078125 295.621094 917.722656 297.746094 C 918.367188 299.871094 918.957031 302.011719 919.5 304.167969 C 920.039062 306.320312 920.523438 308.488281 920.957031 310.664062 C 921.390625 312.84375 921.769531 315.03125 922.097656 317.230469 C 922.421875 319.425781 922.695312 321.628906 922.914062 323.839844 C 923.128906 326.050781 923.292969 328.265625 923.402344 330.484375 C 923.511719 332.699219 923.566406 334.921875 923.566406 337.140625 C 923.566406 337.855469 923.53125 338.566406 923.460938 339.273438 C 923.394531 339.984375 923.292969 340.6875 923.160156 341.386719 C 923.023438 342.089844 922.855469 342.78125 922.65625 343.464844 C 922.457031 344.148438 922.226562 344.820312 921.960938 345.484375 C 921.699219 346.144531 921.402344 346.792969 921.078125 347.425781 C 920.753906 348.0625 920.398438 348.679688 920.015625 349.28125 C 919.632812 349.878906 919.222656 350.460938 918.785156 351.023438 C 918.347656 351.585938 917.882812 352.125 917.394531 352.644531 C 916.90625 353.164062 916.394531 353.65625 915.855469 354.125 C 915.320312 354.59375 914.765625 355.039062 914.1875 355.457031 C 913.609375 355.875 913.011719 356.261719 912.398438 356.621094 C 911.785156 356.984375 911.152344 357.3125 910.507812 357.617188 C 909.863281 357.917969 909.203125 358.1875 908.53125 358.425781 C 907.859375 358.664062 907.179688 358.871094 906.488281 359.046875 C 905.796875 359.21875 905.101562 359.363281 904.394531 359.472656 C 903.691406 359.578125 902.984375 359.65625 902.273438 359.695312 C 901.5625 359.738281 900.847656 359.746094 900.136719 359.722656 C 899.425781 359.695312 898.714844 359.636719 898.007812 359.542969 C 897.304688 359.453125 896.601562 359.324219 895.90625 359.167969 C 895.214844 359.007812 894.527344 358.816406 893.851562 358.59375 C 893.175781 358.371094 892.507812 358.113281 891.855469 357.828125 C 891.203125 357.542969 890.566406 357.226562 889.945312 356.878906 C 889.320312 356.53125 888.71875 356.15625 888.128906 355.753906 C 887.542969 355.351562 886.976562 354.917969 886.429688 354.460938 C 885.882812 354.003906 885.359375 353.523438 884.859375 353.015625 C 884.359375 352.507812 883.882812 351.980469 883.429688 351.425781 C 882.980469 350.875 882.554688 350.304688 882.160156 349.710938 C 881.761719 349.121094 881.394531 348.511719 881.054688 347.882812 C 880.714844 347.257812 880.40625 346.617188 880.128906 345.960938 C 879.851562 345.304688 879.601562 344.636719 879.386719 343.957031 C 879.171875 343.277344 878.988281 342.589844 878.839844 341.894531 C 878.6875 341.199219 878.570312 340.496094 878.488281 339.789062 L 878.328125 337.140625 C 878.328125 335.722656 878.296875 334.304688 878.230469 332.886719 C 878.164062 331.46875 878.0625 330.054688 877.929688 328.640625 C 877.796875 327.230469 877.632812 325.820312 877.433594 324.414062 C 877.234375 323.011719 877 321.613281 876.738281 320.21875 C 876.472656 318.824219 876.175781 317.4375 875.84375 316.054688 C 875.511719 314.675781 875.152344 313.304688 874.757812 311.941406 C 874.359375 310.578125 873.933594 309.226562 873.476562 307.882812 C 873.015625 306.539062 872.527344 305.210938 872.007812 303.890625 C 871.484375 302.570312 870.933594 301.261719 870.351562 299.96875 C 869.765625 298.675781 869.15625 297.394531 868.511719 296.132812 C 867.867188 294.867188 867.195312 293.617188 866.496094 292.382812 C 865.792969 291.152344 865.0625 289.933594 864.304688 288.734375 C 863.542969 287.539062 862.757812 286.355469 861.941406 285.195312 C 861.128906 284.035156 860.285156 282.890625 859.417969 281.769531 C 858.550781 280.648438 857.65625 279.546875 856.734375 278.464844 C 855.816406 277.386719 854.871094 276.328125 853.898438 275.292969 C 852.929688 274.257812 851.9375 273.242188 850.917969 272.253906 C 849.902344 271.265625 848.859375 270.300781 847.796875 269.363281 C 846.734375 268.421875 845.648438 267.507812 844.542969 266.617188 C 843.4375 265.730469 842.3125 264.867188 841.164062 264.03125 C 840.019531 263.195312 838.851562 262.386719 837.667969 261.605469 C 836.484375 260.824219 835.28125 260.074219 834.058594 259.347656 C 832.839844 258.625 831.605469 257.929688 830.351562 257.261719 C 829.097656 256.597656 827.828125 255.960938 826.546875 255.355469 C 825.265625 254.746094 823.96875 254.171875 822.65625 253.625 C 821.347656 253.082031 820.027344 252.566406 818.691406 252.082031 C 817.359375 251.601562 816.011719 251.148438 814.65625 250.730469 C 813.300781 250.308594 811.9375 249.921875 810.5625 249.566406 C 809.191406 249.210938 807.808594 248.886719 806.421875 248.597656 C 805.03125 248.304688 803.636719 248.046875 802.234375 247.824219 C 800.835938 247.597656 799.429688 247.40625 798.019531 247.246094 C 796.609375 247.089844 795.195312 246.964844 793.78125 246.871094 L 787.855469 246.667969 C 787.113281 246.667969 786.375 246.632812 785.636719 246.558594 C 784.898438 246.484375 784.167969 246.378906 783.441406 246.234375 C 782.714844 246.089844 781.996094 245.910156 781.289062 245.691406 C 780.578125 245.476562 779.882812 245.230469 779.199219 244.945312 C 778.511719 244.660156 777.84375 244.34375 777.191406 243.996094 C 776.539062 243.648438 775.902344 243.265625 775.289062 242.855469 C 774.671875 242.445312 774.078125 242.003906 773.503906 241.53125 C 772.933594 241.0625 772.382812 240.566406 771.859375 240.042969 C 771.335938 239.519531 770.839844 238.96875 770.371094 238.398438 C 769.898438 237.824219 769.457031 237.230469 769.046875 236.613281 C 768.636719 236 768.253906 235.363281 767.90625 234.710938 C 767.558594 234.058594 767.242188 233.390625 766.957031 232.703125 C 766.671875 232.019531 766.425781 231.324219 766.210938 230.613281 C 765.992188 229.90625 765.8125 229.1875 765.667969 228.460938 C 765.523438 227.734375 765.417969 227.003906 765.34375 226.265625 C 765.269531 225.527344 765.234375 224.789062 765.234375 224.046875 C 765.234375 223.308594 765.269531 222.570312 765.34375 221.832031 C 765.417969 221.09375 765.523438 220.363281 765.667969 219.636719 C 765.8125 218.910156 765.992188 218.191406 766.210938 217.484375 C 766.425781 216.773438 766.671875 216.078125 766.957031 215.394531 C 767.242188 214.707031 767.558594 214.039062 767.90625 213.386719 C 768.253906 212.734375 768.636719 212.097656 769.046875 211.480469 C 769.457031 210.867188 769.898438 210.273438 770.371094 209.699219 C 770.839844 209.125 771.335938 208.578125 771.859375 208.054688 C 772.382812 207.53125 772.933594 207.035156 773.503906 206.5625 C 774.078125 206.09375 774.671875 205.652344 775.289062 205.242188 C 775.902344 204.832031 776.539062 204.449219 777.191406 204.101562 C 777.84375 203.75 778.511719 203.433594 779.199219 203.152344 C 779.882812 202.867188 780.578125 202.617188 781.289062 202.402344 C 781.996094 202.1875 782.714844 202.007812 783.441406 201.863281 C 784.167969 201.71875 784.898438 201.613281 785.636719 201.539062 C 786.375 201.464844 787.113281 201.429688 787.855469 201.429688 Z M 787.855469 201.429688 "/></g></svg>