<svg width="54" height="53" viewBox="0 0 54 53" fill="none" xmlns="http://www.w3.org/2000/svg">
<mask id="mask0_42_241" style="mask-type:luminance" maskUnits="userSpaceOnUse" x="0" y="0" width="54" height="53">
<path d="M0.345703 0.28653H53.5124V52.6476H0.345703V0.28653Z" fill="white"/>
</mask>
<g mask="url(#mask0_42_241)">
<path d="M9.95269 37.5419C9.95269 40.1233 10.5514 42.5702 11.6189 44.7547C9.59461 41.8348 8.40963 38.3083 8.40963 34.5138C8.40963 24.4751 16.7007 16.3088 26.8938 16.3088C37.087 16.3088 45.379 24.4751 45.379 34.5138C45.379 38.3065 44.195 41.832 42.1726 44.751C43.2382 42.5674 43.8369 40.1224 43.8369 37.5419C43.8369 28.342 36.2362 20.8584 26.8938 20.8584C17.5524 20.8584 9.95269 28.342 9.95269 37.5419ZM26.8938 14.491C38.1039 14.491 47.2247 23.4736 47.2247 34.5138C47.2247 37.6096 46.5076 40.5437 45.2281 43.1636C47.6554 39.6606 49.0762 35.4298 49.0762 30.8783C49.0762 18.8318 39.1256 9.03294 26.8938 9.03294C14.663 9.03294 4.71241 18.8318 4.71241 30.8783C4.71241 35.4279 6.13324 39.6578 8.55859 43.1598C7.28003 40.5408 6.56388 37.6087 6.56388 34.5138C6.56388 23.4736 15.6847 14.491 26.8938 14.491ZM26.8938 6.85216C40.3469 6.85216 51.2905 17.63 51.2905 30.8783C51.2905 34.5947 50.4293 38.1156 48.8938 41.2602C51.8071 37.0567 53.5125 31.9795 53.5125 26.5177C53.5125 12.0629 41.572 0.302322 26.8938 0.302322C12.2167 0.302322 0.276123 12.0629 0.276123 26.5177C0.276123 31.9795 1.98246 37.0567 4.89479 41.2602C3.35937 38.1156 2.49809 34.5947 2.49809 30.8783C2.49809 17.63 13.4427 6.85216 26.8938 6.85216ZM26.8938 26.1613C34.6798 26.1613 41.0124 32.3998 41.0124 40.0669C41.0124 42.2157 40.5149 44.2526 39.626 46.0722C41.3122 43.6394 42.2986 40.7016 42.2986 37.5419C42.2986 29.1771 35.3883 22.3715 26.8938 22.3715C18.4003 22.3715 11.491 29.1771 11.491 37.5419C11.491 40.7016 12.4773 43.6394 14.1627 46.0722C13.2746 44.2535 12.7762 42.2157 12.7762 40.0669C12.7772 32.3998 19.1098 26.1613 26.8938 26.1613ZM35.8094 43.9225C35.8094 39.0804 31.8104 35.142 26.8938 35.142C21.9792 35.142 17.9802 39.0804 17.9802 43.9225C17.9802 48.7636 21.9792 52.702 26.8938 52.702C31.8104 52.702 35.8094 48.7636 35.8094 43.9225ZM26.8938 30.5821C33.3821 30.5821 38.6596 35.7806 38.6596 42.1705C38.6596 43.9629 38.2443 45.6613 37.5033 47.1772C38.9089 45.1497 39.7319 42.7009 39.7319 40.0669C39.7319 33.0948 33.9732 27.4242 26.8938 27.4242C19.8164 27.4242 14.0576 33.0948 14.0576 40.0669C14.0576 42.7 14.8798 45.1469 16.2834 47.1734C15.5434 45.6585 15.129 43.961 15.129 42.1705C15.129 35.7806 20.4065 30.5821 26.8938 30.5821ZM26.8938 34.2656C32.3003 34.2656 36.6993 38.598 36.6993 43.9225C36.6993 45.4168 36.3527 46.833 35.7339 48.0969C36.9056 46.407 37.5921 44.3664 37.5921 42.1705C37.5921 36.3608 32.793 31.6334 26.8938 31.6334C20.9957 31.6334 16.1965 36.3608 16.1965 42.1705C16.1965 44.3673 16.8831 46.4098 18.0566 48.0997C17.4378 46.8349 17.0903 45.4177 17.0903 43.9225C17.0903 38.598 21.4884 34.2656 26.8938 34.2656Z" fill="white"/>
</g>
</svg>
