<svg width="41" height="38" viewBox="0 0 41 38" fill="none" xmlns="http://www.w3.org/2000/svg">
<path d="M7.4551 26.9276C7.4551 28.7809 7.91603 30.5376 8.73791 32.106C7.17943 30.0096 6.26713 27.4778 6.26713 24.7536C6.26713 17.5463 12.6503 11.6832 20.4979 11.6832C28.3454 11.6832 34.7293 17.5463 34.7293 24.7536C34.7293 27.4765 33.8178 30.0076 32.2607 32.1033C33.0812 30.5356 33.5421 28.7802 33.5421 26.9276C33.5421 20.3225 27.6904 14.9496 20.4979 14.9496C13.306 14.9496 7.4551 20.3225 7.4551 26.9276ZM20.4979 10.3782C29.1283 10.3782 36.1503 16.8272 36.1503 24.7536C36.1503 26.9762 35.5983 29.0826 34.6132 30.9636C36.4819 28.4487 37.5758 25.4112 37.5758 22.1434C37.5758 13.4947 29.9149 6.45957 20.4979 6.45957C11.0815 6.45957 3.42068 13.4947 3.42068 22.1434C3.42068 25.4098 4.51456 28.4466 6.38181 30.9609C5.39746 29.0806 4.84611 26.9755 4.84611 24.7536C4.84611 16.8272 11.8681 10.3782 20.4979 10.3782ZM20.4979 4.89389C30.8552 4.89389 39.2805 12.6318 39.2805 22.1434C39.2805 24.8116 38.6175 27.3394 37.4354 29.5971C39.6783 26.5792 40.9912 22.934 40.9912 19.0127C40.9912 8.63492 31.7983 0.191437 20.4979 0.191437C9.19811 0.191437 0.00524902 8.63492 0.00524902 19.0127C0.00524902 22.934 1.31893 26.5792 3.56109 29.5971C2.379 27.3394 1.71591 24.8116 1.71591 22.1434C1.71591 12.6318 10.142 4.89389 20.4979 4.89389ZM20.4979 18.7568C26.4921 18.7568 31.3676 23.2358 31.3676 28.7403C31.3676 30.2831 30.9846 31.7455 30.3001 33.0519C31.5984 31.3053 32.3578 29.1961 32.3578 26.9276C32.3578 20.9221 27.0376 16.036 20.4979 16.036C13.9588 16.036 8.6394 20.9221 8.6394 26.9276C8.6394 29.1961 9.3988 31.3053 10.6963 33.0519C10.0126 31.7461 9.6289 30.2831 9.6289 28.7403C9.62963 23.2358 14.505 18.7568 20.4979 18.7568ZM27.3618 31.5085C27.3618 28.0321 24.2831 25.2046 20.4979 25.2046C16.7141 25.2046 13.6354 28.0321 13.6354 31.5085C13.6354 34.9842 16.7141 37.8117 20.4979 37.8117C24.2831 37.8117 27.3618 34.9842 27.3618 31.5085ZM20.4979 21.9307C25.4931 21.9307 29.5562 25.663 29.5562 30.2507C29.5562 31.5375 29.2364 32.7568 28.6659 33.8452C29.7481 32.3896 30.3817 30.6315 30.3817 28.7403C30.3817 23.7347 25.9481 19.6636 20.4979 19.6636C15.049 19.6636 10.6154 23.7347 10.6154 28.7403C10.6154 30.6308 11.2484 32.3875 12.329 33.8425C11.7593 32.7548 11.4403 31.5362 11.4403 30.2507C11.4403 25.663 15.5034 21.9307 20.4979 21.9307ZM20.4979 24.5753C24.6602 24.5753 28.047 27.6858 28.047 31.5085C28.047 32.5813 27.7801 33.5981 27.3037 34.5055C28.2057 33.2922 28.7343 31.8271 28.7343 30.2507C28.7343 26.0796 25.0395 22.6856 20.4979 22.6856C15.9569 22.6856 12.2621 26.0796 12.2621 30.2507C12.2621 31.8278 12.7907 33.2943 13.6942 34.5075C13.2178 33.5994 12.9502 32.582 12.9502 31.5085C12.9502 27.6858 16.3363 24.5753 20.4979 24.5753Z" fill="white"/>
</svg>
