<svg width="55" height="55" viewBox="0 0 55 55" fill="none" xmlns="http://www.w3.org/2000/svg">
<rect width="55" height="55" rx="27.5" fill="#0017FF" fill-opacity="0.28"/>
<path fill-rule="evenodd" clip-rule="evenodd" d="M33.1268 36.3114C31.0299 37.8635 37.5503 31.1957 35.6948 33.7303C35.7413 33.7266 35.6552 33.8671 35.3667 34.2194C35.3667 34.2194 40.322 39.1414 42.7545 41.6463C43.599 42.5595 42.0753 44.3822 41.0402 43.4306C38.8374 41.2934 33.6252 35.982 33.6171 35.9734L33.1268 36.3114Z" fill="#8F00FF"/>
<path d="M25.8452 38.8C29.0336 38.7691 32.1898 37.4485 34.4595 35.2055C37.155 32.5414 38.5431 28.6001 38.0589 24.8372C37.2293 18.3891 31.9286 14.0132 25.766 14.0132C21.0837 14.0132 16.5333 16.9422 14.5373 21.1893C13.0093 24.4409 13.0062 28.3667 14.5373 31.6239C16.519 35.8413 20.9952 38.7548 25.6861 38.8C25.7394 38.8 25.7926 38.8 25.8452 38.8ZM25.6991 36.7341C20.9376 36.6882 16.4949 33.0058 15.6114 28.2844C14.9886 24.956 16.1643 21.354 18.6135 18.9902C21.4725 16.2296 25.9666 15.3053 29.7035 16.8698C33.0467 18.2696 35.5491 21.5199 36.0103 25.1009C36.4053 28.1705 35.3039 31.3874 33.1395 33.6032C31.2407 35.5472 28.578 36.7074 25.8322 36.7341C25.7876 36.7341 25.7437 36.7341 25.6991 36.7341Z" fill="#8F00FF"/>
</svg>
