<svg xmlns="http://www.w3.org/2000/svg" xmlns:xlink="http://www.w3.org/1999/xlink" width="1920" zoomAndPan="magnify" viewBox="0 0 1440 809.999993" height="1080" preserveAspectRatio="xMidYMid meet" version="1.2"><defs><clipPath id="71ff7dce0a"><path d="M 611.382812 296.113281 L 828.882812 296.113281 L 828.882812 513.613281 L 611.382812 513.613281 Z M 611.382812 296.113281 "/></clipPath></defs><g id="91b1afc730"><g clip-rule="nonzero" clip-path="url(#71ff7dce0a)"><path style=" stroke:none;fill-rule:nonzero;fill:#ffffff;fill-opacity:1;" d="M 650.902344 450.675781 C 650.902344 461.386719 653.351562 471.539062 657.710938 480.597656 C 649.441406 468.488281 644.597656 453.855469 644.597656 438.113281 C 644.597656 396.464844 678.476562 362.585938 720.125 362.585938 C 761.773438 362.585938 795.652344 396.464844 795.652344 438.113281 C 795.652344 453.847656 790.8125 468.472656 782.546875 480.582031 C 786.90625 471.527344 789.347656 461.378906 789.347656 450.675781 C 789.347656 412.507812 758.296875 381.460938 720.125 381.460938 C 681.957031 381.460938 650.902344 412.507812 650.902344 450.675781 Z M 720.125 355.046875 C 765.925781 355.046875 803.191406 392.3125 803.191406 438.113281 C 803.191406 450.957031 800.261719 463.128906 795.035156 473.996094 C 804.953125 459.464844 810.757812 441.914062 810.757812 423.03125 C 810.757812 373.054688 770.101562 332.398438 720.125 332.398438 C 670.152344 332.398438 629.492188 373.054688 629.492188 423.03125 C 629.492188 441.90625 635.296875 459.453125 645.207031 473.980469 C 639.984375 463.117188 637.054688 450.953125 637.054688 438.113281 C 637.054688 392.3125 674.324219 355.046875 720.125 355.046875 Z M 720.125 323.355469 C 775.089844 323.355469 819.804688 368.070312 819.804688 423.03125 C 819.804688 438.449219 816.285156 453.058594 810.011719 466.101562 C 821.914062 448.660156 828.882812 427.597656 828.882812 404.9375 C 828.882812 344.96875 780.097656 296.175781 720.125 296.175781 C 660.15625 296.175781 611.367188 344.96875 611.367188 404.9375 C 611.367188 427.597656 618.335938 448.660156 630.238281 466.101562 C 623.964844 453.058594 620.445312 438.449219 620.445312 423.03125 C 620.445312 368.070312 665.164062 323.355469 720.125 323.355469 Z M 720.125 403.460938 C 751.933594 403.460938 777.808594 429.34375 777.808594 461.148438 C 777.808594 470.066406 775.773438 478.519531 772.144531 486.0625 C 779.03125 475.972656 783.066406 463.785156 783.066406 450.675781 C 783.066406 415.972656 754.832031 387.738281 720.125 387.738281 C 685.421875 387.738281 657.1875 415.972656 657.1875 450.675781 C 657.1875 463.785156 661.21875 475.972656 668.105469 486.066406 C 664.476562 478.519531 662.441406 470.066406 662.441406 461.148438 C 662.441406 429.34375 688.320312 403.460938 720.125 403.460938 Z M 756.550781 477.148438 C 756.550781 457.058594 740.210938 440.71875 720.125 440.71875 C 700.042969 440.71875 683.703125 457.058594 683.703125 477.148438 C 683.703125 497.230469 700.042969 513.570312 720.125 513.570312 C 740.210938 513.570312 756.550781 497.230469 756.550781 477.148438 Z M 720.125 421.800781 C 746.632812 421.800781 768.195312 443.367188 768.195312 469.875 C 768.195312 477.3125 766.496094 484.359375 763.46875 490.648438 C 769.214844 482.238281 772.578125 472.082031 772.578125 461.148438 C 772.578125 432.226562 749.046875 408.699219 720.125 408.699219 C 691.207031 408.699219 667.675781 432.226562 667.675781 461.148438 C 667.675781 472.074219 671.035156 482.226562 676.769531 490.636719 C 673.75 484.347656 672.054688 477.308594 672.054688 469.875 C 672.054688 443.367188 693.617188 421.800781 720.125 421.800781 Z M 720.125 437.085938 C 742.210938 437.085938 760.183594 455.058594 760.183594 477.148438 C 760.183594 483.347656 758.769531 489.21875 756.242188 494.464844 C 761.03125 487.453125 763.835938 478.988281 763.835938 469.875 C 763.835938 445.777344 744.226562 426.164062 720.125 426.164062 C 696.023438 426.164062 676.414062 445.777344 676.414062 469.875 C 676.414062 478.992188 679.222656 487.464844 684.015625 494.476562 C 681.484375 489.230469 680.066406 483.351562 680.066406 477.148438 C 680.066406 455.058594 698.035156 437.085938 720.125 437.085938 Z M 720.125 437.085938 "/></g></g></svg>